<svg xmlns="http://www.w3.org/2000/svg" width="25.38" height="20" viewBox="0 0 25.38 20"><path d="M318.878,51.938H321.6v1.128a.256.256,0,0,0,.256.256h.592a.256.256,0,0,0,.256-.256V51.938h2.721a.37.37,0,0,1,.37.37v5.807a.37.37,0,0,1-.37.37h-6.546a.369.369,0,0,1-.369-.37V52.308A.37.37,0,0,1,318.878,51.938Z" transform="translate(-316.911 -51.938)" fill="#d00016"/><g transform="translate(0 1.994)"><g transform="translate(2.759 12.009)"><path d="M323.972,328.291a3,3,0,1,0-3-3A3,3,0,0,0,323.972,328.291Zm0-4.486a1.487,1.487,0,1,1-1.487,1.487A1.489,1.489,0,0,1,323.972,323.806Z" transform="translate(-320.974 -322.295)" fill="#d00016"/><g transform="translate(16.625)"><path d="M3,328.291a3,3,0,1,0-3-3A3,3,0,0,0,3,328.291Zm0-4.486a1.487,1.487,0,1,1-1.487,1.487A1.489,1.489,0,0,1,3,323.806Z" transform="translate(0 -322.295)" fill="#d00016"/></g></g><path d="M18.75,99.584v-.822H16.66a.856.856,0,0,1-.856-.856V97.3a.856.856,0,0,1,.856-.856H27.135a.856.856,0,0,1,.856.856v.619a.856.856,0,0,1-.856.856H25.977v3.29h5.8a5.8,5.8,0,0,1,1.635-1.674l-2.282-8.232H29.022a.856.856,0,0,1,0-1.712h3a1.1,1.1,0,0,1,.383.09.857.857,0,0,1,.331.291l6.074,9.106a1.065,1.065,0,0,1,.215.9.923.923,0,0,1-1.217.462,3.866,3.866,0,0,0-1.178-.174,4.049,4.049,0,0,0-4.045,4.045.856.856,0,0,1-.856.856H25.083a.856.856,0,0,1-.856-.856,4.045,4.045,0,1,0-8.089,0,.856.856,0,1,1-1.712,0A5.767,5.767,0,0,1,18.75,99.584Z" transform="translate(-14.425 -90.444)" fill="#d00016"/></g></svg>